<mxfile host="app.diagrams.net" modified="2023-10-17T04:27:41.955Z" agent="Mozilla/5.0 (Windows NT 10.0; Win64; x64; rv:109.0) Gecko/20100101 Firefox/118.0" etag="wNFXlNz2csW9Xuvbaisi" version="22.0.4" type="github">
  <diagram name="Page-1" id="MOFV3vKOLyDGz6TQ_8hC">
    <mxGraphModel dx="1114" dy="602" grid="1" gridSize="10" guides="1" tooltips="1" connect="1" arrows="1" fold="1" page="1" pageScale="1" pageWidth="850" pageHeight="1100" math="0" shadow="0">
      <root>
        <mxCell id="0" />
        <mxCell id="1" parent="0" />
        <mxCell id="Y4L-XODa4uhL3pDYIsGw-3" style="edgeStyle=orthogonalEdgeStyle;rounded=0;orthogonalLoop=1;jettySize=auto;html=1;" parent="1" source="Y4L-XODa4uhL3pDYIsGw-2" edge="1">
          <mxGeometry relative="1" as="geometry">
            <mxPoint x="452.5" y="290" as="targetPoint" />
          </mxGeometry>
        </mxCell>
        <mxCell id="Y4L-XODa4uhL3pDYIsGw-2" value="mulai" style="strokeWidth=2;html=1;shape=mxgraph.flowchart.terminator;whiteSpace=wrap;" parent="1" vertex="1">
          <mxGeometry x="375" y="140" width="155" height="70" as="geometry" />
        </mxCell>
        <mxCell id="Lc-cN_BtUhKs0g-3fjZk-3" value="" style="edgeStyle=orthogonalEdgeStyle;rounded=0;orthogonalLoop=1;jettySize=auto;html=1;" edge="1" parent="1" source="Y4L-XODa4uhL3pDYIsGw-4" target="Lc-cN_BtUhKs0g-3fjZk-2">
          <mxGeometry relative="1" as="geometry" />
        </mxCell>
        <mxCell id="Y4L-XODa4uhL3pDYIsGw-4" value="bil" style="shape=parallelogram;html=1;strokeWidth=2;perimeter=parallelogramPerimeter;whiteSpace=wrap;rounded=1;arcSize=12;size=0.23;" parent="1" vertex="1">
          <mxGeometry x="360" y="290" width="180" height="90" as="geometry" />
        </mxCell>
        <mxCell id="Lc-cN_BtUhKs0g-3fjZk-5" value="" style="edgeStyle=orthogonalEdgeStyle;rounded=0;orthogonalLoop=1;jettySize=auto;html=1;" edge="1" parent="1" source="Lc-cN_BtUhKs0g-3fjZk-2">
          <mxGeometry relative="1" as="geometry">
            <mxPoint x="580" y="505" as="targetPoint" />
          </mxGeometry>
        </mxCell>
        <mxCell id="Lc-cN_BtUhKs0g-3fjZk-7" value="" style="edgeStyle=orthogonalEdgeStyle;rounded=0;orthogonalLoop=1;jettySize=auto;html=1;" edge="1" parent="1" source="Lc-cN_BtUhKs0g-3fjZk-2">
          <mxGeometry relative="1" as="geometry">
            <mxPoint x="330" y="505" as="targetPoint" />
          </mxGeometry>
        </mxCell>
        <mxCell id="Lc-cN_BtUhKs0g-3fjZk-2" value="bil mod==0" style="rhombus;whiteSpace=wrap;html=1;strokeWidth=2;rounded=1;arcSize=12;" vertex="1" parent="1">
          <mxGeometry x="410" y="465" width="80" height="80" as="geometry" />
        </mxCell>
        <mxCell id="Lc-cN_BtUhKs0g-3fjZk-8" value="Y" style="text;html=1;align=center;verticalAlign=middle;resizable=0;points=[];autosize=1;strokeColor=none;fillColor=none;" vertex="1" parent="1">
          <mxGeometry x="345" y="468" width="30" height="30" as="geometry" />
        </mxCell>
        <mxCell id="Lc-cN_BtUhKs0g-3fjZk-9" value="T" style="text;html=1;align=center;verticalAlign=middle;resizable=0;points=[];autosize=1;strokeColor=none;fillColor=none;" vertex="1" parent="1">
          <mxGeometry x="515" y="468" width="30" height="30" as="geometry" />
        </mxCell>
        <mxCell id="Lc-cN_BtUhKs0g-3fjZk-13" value="" style="edgeStyle=orthogonalEdgeStyle;rounded=0;orthogonalLoop=1;jettySize=auto;html=1;" edge="1" parent="1" source="Lc-cN_BtUhKs0g-3fjZk-10" target="Lc-cN_BtUhKs0g-3fjZk-12">
          <mxGeometry relative="1" as="geometry" />
        </mxCell>
        <mxCell id="Lc-cN_BtUhKs0g-3fjZk-10" value="genap" style="shape=parallelogram;html=1;strokeWidth=2;perimeter=parallelogramPerimeter;whiteSpace=wrap;rounded=1;arcSize=12;size=0.23;" vertex="1" parent="1">
          <mxGeometry x="240" y="475" width="100" height="60" as="geometry" />
        </mxCell>
        <mxCell id="Lc-cN_BtUhKs0g-3fjZk-11" value="ganjil" style="shape=parallelogram;html=1;strokeWidth=2;perimeter=parallelogramPerimeter;whiteSpace=wrap;rounded=1;arcSize=12;size=0.23;" vertex="1" parent="1">
          <mxGeometry x="570" y="475" width="100" height="60" as="geometry" />
        </mxCell>
        <mxCell id="Lc-cN_BtUhKs0g-3fjZk-12" value="end" style="strokeWidth=2;html=1;shape=mxgraph.flowchart.terminator;whiteSpace=wrap;" vertex="1" parent="1">
          <mxGeometry x="240" y="630" width="100" height="60" as="geometry" />
        </mxCell>
        <mxCell id="Lc-cN_BtUhKs0g-3fjZk-14" style="edgeStyle=orthogonalEdgeStyle;rounded=0;orthogonalLoop=1;jettySize=auto;html=1;exitX=0.5;exitY=1;exitDx=0;exitDy=0;entryX=1;entryY=0.5;entryDx=0;entryDy=0;entryPerimeter=0;" edge="1" parent="1" source="Lc-cN_BtUhKs0g-3fjZk-11" target="Lc-cN_BtUhKs0g-3fjZk-12">
          <mxGeometry relative="1" as="geometry" />
        </mxCell>
      </root>
    </mxGraphModel>
  </diagram>
</mxfile>
